<svg xmlns="http://www.w3.org/2000/svg" xmlns:xlink="http://www.w3.org/1999/xlink" style="display: none;">
  <!-- Email Icon -->
  <symbol id="email" viewBox="0 0 20 20" fill="currentColor">
    <path d="M2.003 5.884L10 9.882l7.997-3.998A2 2 0 0016 4H4a2 2 0 00-1.997 1.884z" />
    <path d="M18 8.118l-8 4-8-4V14a2 2 0 002 2h12a2 2 0 002-2V8.118z" />
  </symbol>

  <!-- Lock/Password Icon -->
  <symbol id="lock" viewBox="0 0 20 20" fill="currentColor">
    <path fill-rule="evenodd" d="M5 9V7a5 5 0 0110 0v2a2 2 0 012 2v5a2 2 0 01-2 2H5a2 2 0 01-2-2v-5a2 2 0 012-2zm8-2v2H7V7a3 3 0 016 0z" clip-rule="evenodd" />
  </symbol>

  <!-- User Icon -->
  <symbol id="user" viewBox="0 0 20 20" fill="currentColor">
    <path fill-rule="evenodd" d="M10 9a3 3 0 100-6 3 3 0 000 6zm-7 9a7 7 0 1114 0H3z" clip-rule="evenodd" />
  </symbol>

  <!-- Eye (Show Password) Icon -->
  <symbol id="eye" viewBox="0 0 20 20" fill="currentColor">
    <path d="M10 12a2 2 0 100-4 2 2 0 000 4z" />
    <path fill-rule="evenodd" d="M.458 10C1.732 5.943 5.522 3 10 3s8.268 2.943 9.542 7c-1.274 4.057-5.064 7-9.542 7S1.732 14.057.458 10zM14 10a4 4 0 11-8 0 4 4 0 018 0z" clip-rule="evenodd" />
  </symbol>

  <!-- Eye Off (Hide Password) Icon -->
  <symbol id="eye-off" viewBox="0 0 20 20" fill="currentColor">
    <path fill-rule="evenodd" d="M3.707 2.293a1 1 0 00-1.414 1.414l14 14a1 1 0 001.414-1.414l-1.473-1.473A10.014 10.014 0 0019.542 10C18.268 5.943 14.478 3 10 3a9.958 9.958 0 00-4.512 1.074l-1.78-1.781zm4.261 4.26l1.514 1.515a2.003 2.003 0 012.45 2.45l1.514 1.514a4 4 0 00-5.478-5.478z" clip-rule="evenodd" />
    <path d="M12.454 16.697L9.75 13.992a4 4 0 01-3.742-3.741L2.335 6.578A9.98 9.98 0 00.458 10c1.274 4.057 5.064 7 9.542 7 .847 0 1.669-.105 2.454-.303z" />
  </symbol>


  <!-- Currency Icon -->
  <symbol viewBox="0 0 48 48" id="currency" fill="currentColor">
    <g data-name="Layer 2">
    <g data-name="invisible box" fill="none">
    <path d="M0 0h48v48H0z"/>
    <path d="M0 0h48v48H0z"/>
    </g>
    <path d="M26 21.9V10.5a15.4 15.4 0 0 1 5.2 2.1 2.2 2.2 0 0 0 3.1-.7 1.8 1.8 0 0 0-.4-2.9A17.1 17.1 0 0 0 26 6.2V4a2 2 0 0 0-4 0v2c-6.3.5-10.8 4.4-10.8 9.7 0 6 4.3 8.4 10.8 10v11.9a16.7 16.7 0 0 1-7.3-3.1 2 2 0 0 0-3 .4c-1 1.3-.9 2.3.1 3A19.8 19.8 0 0 0 22 41.8V44a2 2 0 0 0 4 0v-2.1c6.5-.5 11-4.4 11-10 0-5.2-3.3-8.2-11-10Zm-10-6.4c0-2.8 2.4-4.8 6-5.1V21c-5-1.4-6-3.1-6-5.5Zm16.2 16.8c0 2.9-2.5 5-6.2 5.4v-11c5.1 1.4 6.2 3.1 6.2 5.5Z" data-name="icons Q2"/>
    </g>
  </symbol>

  <!-- Money Bag Icon -->
  <symbol viewBox="0 0 24 24" fill="currentColor" id="moneyBag">
    <path d="M2 14c0-3.771 0-5.657 1.172-6.828C4.343 6 6.229 6 10 6h4c3.771 0 5.657 0 6.828 1.172C22 8.343 22 10.229 22 14c0 3.771 0 5.657-1.172 6.828C19.657 22 17.771 22 14 22h-4c-3.771 0-5.657 0-6.828-1.172C2 19.657 2 17.771 2 14Z" stroke="#1C274C" stroke-width="1.5"/>
    <path opacity=".5" d="M16 6c0-1.886 0-2.828-.586-3.414C14.828 2 13.886 2 12 2c-1.886 0-2.828 0-3.414.586C8 3.172 8 4.114 8 6" stroke="#1C274C" stroke-width="1.5"/>
    <path opacity=".5" d="M12 17.333c1.105 0 2-.746 2-1.666 0-.92-.895-1.667-2-1.667s-2-.746-2-1.667c0-.92.895-1.666 2-1.666m0 6.666c-1.105 0-2-.746-2-1.666m2 1.666V18m0-8v.667m0 0c1.105 0 2 .746 2 1.666" stroke="#1C274C" stroke-width="1.5" stroke-linecap="round"/>
  </symbol>

  <!-- Edit Icon -->
  <symbol viewBox="0 0 24 24" id="editIcon" xmlns="http://www.w3.org/2000/svg">
    <g fill="none" stroke="currentColor" stroke-linecap="round" stroke-linejoin="round" stroke-width="2">
    <path d="M20 16v4a2 2 0 0 1-2 2H4a2 2 0 0 1-2-2V6a2 2 0 0 1 2-2h4"/>
    <path d="M12.5 15.8 22 6.2 17.8 2l-9.5 9.5L8 16l4.5-.2z"/>
    </g>
  </symbol>

   <symbol fill="none" stroke="currentColor" viewBox="0 0 24 24" id="minusIcon">
      <path stroke-linecap="round" stroke-linejoin="round" stroke-width="3" d="M20 12H4" />
   </symbol>

   <symbol fill="none" stroke="currentColor" viewBox="0 0 24 24" id="transferIcon">
      <path stroke-linecap="round" stroke-linejoin="round" stroke-width="2" d="M8 7h12m0 0l-4-4m4 4l-4 4m0 6H4m0 0l4 4m-4-4l4-4" />
   </symbol>

   <symbol fill="none" stroke="currentColor" viewBox="0 0 24 24" id="plusIcon">
      <path stroke-linecap="round" stroke-linejoin="round" stroke-width="2" d="M12 6v6m0 0v6m0-6h6m-6 0H6" />
   </symbol>

  <!-- Calendar Icon -->
   <symbol fill="none" stroke="currentColor" viewBox="0 0 24 24" id="calendarIcon" >
    <path d="M3 9h18M7 3v2m10-2v2M6 13h2m-2 4h2m3-4h2m-2 4h2m3-4h2m-2 4h2M6.2 21h11.6c1.12 0 1.68 0 2.108-.218a2 2 0 0 0 .874-.874C21 19.48 21 18.92 21 17.8V8.2c0-1.12 0-1.68-.218-2.108a2 2 0 0 0-.874-.874C19.48 5 18.92 5 17.8 5H6.2c-1.12 0-1.68 0-2.108.218a2 2 0 0 0-.874.874C3 6.52 3 7.08 3 8.2v9.6c0 1.12 0 1.68.218 2.108a2 2 0 0 0 .874.874C4.52 21 5.08 21 6.2 21Z" stroke-width="2" stroke-linecap="round" stroke-linejoin="round"/>
  </symbol>

  <symbol viewBox="-3 0 262 262" preserveAspectRatio="xMidYMid" id="svg-google" xmlns="http://www.w3.org/2000/svg">
    <path d="M255.878 133.451c0-10.734-.871-18.567-2.756-26.69H130.55v48.448h71.947c-1.45 12.04-9.283 30.172-26.69 42.356l-.244 1.622 38.755 30.023 2.685.268c24.659-22.774 38.875-56.282 38.875-96.027" fill="#4285F4"/>
    <path d="M130.55 261.1c35.248 0 64.839-11.605 86.453-31.622l-41.196-31.913c-11.024 7.688-25.82 13.055-45.257 13.055-34.523 0-63.824-22.773-74.269-54.25l-1.531.13-40.298 31.187-.527 1.465C35.393 231.798 79.49 261.1 130.55 261.1" fill="#34A853"/>
    <path d="M56.281 156.37c-2.756-8.123-4.351-16.827-4.351-25.82 0-8.994 1.595-17.697 4.206-25.82l-.073-1.73L15.26 71.312l-1.335.635C5.077 89.644 0 109.517 0 130.55s5.077 40.905 13.925 58.602l42.356-32.782" fill="#FBBC05"/>
    <path d="M130.55 50.479c24.514 0 41.05 10.589 50.479 19.438l36.844-35.974C195.245 12.91 165.798 0 130.55 0 79.49 0 35.393 29.301 13.925 71.947l42.211 32.783c10.59-31.477 39.891-54.251 74.414-54.251" fill="#EB4335"/>
  </symbol>

  <symbol viewBox="0 0 98 96" id="svg-github" xmlns="http://www.w3.org/2000/svg">
    <path fill-rule="evenodd" clip-rule="evenodd" d="M48.854 0C21.839 0 0 22 0 49.217c0 21.756 13.993 40.172 33.405 46.69 2.427.49 3.316-1.059 3.316-2.362 0-1.141-.08-5.052-.08-9.127-13.59 2.934-16.42-5.867-16.42-5.867-2.184-5.704-5.42-7.17-5.42-7.17-4.448-3.015.324-3.015.324-3.015 4.934.326 7.523 5.052 7.523 5.052 4.367 7.496 11.404 5.378 14.235 4.074.404-3.178 1.699-5.378 3.074-6.6-10.839-1.141-22.243-5.378-22.243-24.283 0-5.378 1.94-9.778 5.014-13.2-.485-1.222-2.184-6.275.486-13.038 0 0 4.125-1.304 13.426 5.052a46.97 46.97 0 0 1 12.214-1.63c4.125 0 8.33.571 12.213 1.63 9.302-6.356 13.427-5.052 13.427-5.052 2.67 6.763.97 11.816.485 13.038 3.155 3.422 5.015 7.822 5.015 13.2 0 18.905-11.404 23.06-22.324 24.283 1.78 1.548 3.316 4.481 3.316 9.126 0 6.6-.08 11.897-.08 13.526 0 1.304.89 2.853 3.316 2.364 19.412-6.52 33.405-24.935 33.405-46.691C97.707 22 75.788 0 48.854 0z" fill="#24292f"/>
  </symbol>
    
</svg>