<svg xmlns="http://www.w3.org/2000/svg" xmlns:xlink="http://www.w3.org/1999/xlink" style="display: none;">
  <!-- Email Icon -->
  <symbol id="email" viewBox="0 0 20 20" fill="currentColor">
    <path d="M2.003 5.884L10 9.882l7.997-3.998A2 2 0 0016 4H4a2 2 0 00-1.997 1.884z" />
    <path d="M18 8.118l-8 4-8-4V14a2 2 0 002 2h12a2 2 0 002-2V8.118z" />
  </symbol>

  <!-- User Icon -->
  <symbol id="user" viewBox="0 0 20 20" fill="currentColor">
    <path fill-rule="evenodd" d="M10 9a3 3 0 100-6 3 3 0 000 6zm-7 9a7 7 0 1114 0H3z" clip-rule="evenodd" />
  </symbol>

  <!-- Currency Icon -->
  <symbol viewBox="0 0 48 48" id="currency" fill="currentColor">
    <g data-name="Layer 2">
    <g data-name="invisible box" fill="none">
    <path d="M0 0h48v48H0z"/>
    <path d="M0 0h48v48H0z"/>
    </g>
    <path d="M26 21.9V10.5a15.4 15.4 0 0 1 5.2 2.1 2.2 2.2 0 0 0 3.1-.7 1.8 1.8 0 0 0-.4-2.9A17.1 17.1 0 0 0 26 6.2V4a2 2 0 0 0-4 0v2c-6.3.5-10.8 4.4-10.8 9.7 0 6 4.3 8.4 10.8 10v11.9a16.7 16.7 0 0 1-7.3-3.1 2 2 0 0 0-3 .4c-1 1.3-.9 2.3.1 3A19.8 19.8 0 0 0 22 41.8V44a2 2 0 0 0 4 0v-2.1c6.5-.5 11-4.4 11-10 0-5.2-3.3-8.2-11-10Zm-10-6.4c0-2.8 2.4-4.8 6-5.1V21c-5-1.4-6-3.1-6-5.5Zm16.2 16.8c0 2.9-2.5 5-6.2 5.4v-11c5.1 1.4 6.2 3.1 6.2 5.5Z" data-name="icons Q2"/>
    </g>
  </symbol>

  <!-- Money Bag Icon -->
  <symbol viewBox="0 0 24 24" fill="currentColor" id="moneyBag">
    <path d="M2 14c0-3.771 0-5.657 1.172-6.828C4.343 6 6.229 6 10 6h4c3.771 0 5.657 0 6.828 1.172C22 8.343 22 10.229 22 14c0 3.771 0 5.657-1.172 6.828C19.657 22 17.771 22 14 22h-4c-3.771 0-5.657 0-6.828-1.172C2 19.657 2 17.771 2 14Z" stroke="#1C274C" stroke-width="1.5"/>
    <path opacity=".5" d="M16 6c0-1.886 0-2.828-.586-3.414C14.828 2 13.886 2 12 2c-1.886 0-2.828 0-3.414.586C8 3.172 8 4.114 8 6" stroke="#1C274C" stroke-width="1.5"/>
    <path opacity=".5" d="M12 17.333c1.105 0 2-.746 2-1.666 0-.92-.895-1.667-2-1.667s-2-.746-2-1.667c0-.92.895-1.666 2-1.666m0 6.666c-1.105 0-2-.746-2-1.666m2 1.666V18m0-8v.667m0 0c1.105 0 2 .746 2 1.666" stroke="#1C274C" stroke-width="1.5" stroke-linecap="round"/>
  </symbol>

  <!-- Edit Icon -->
  <symbol viewBox="0 0 24 24" id="editIcon">
    <g fill="none" stroke="currentColor" stroke-linecap="round" stroke-linejoin="round" stroke-width="2">
    <path d="M20 16v4a2 2 0 0 1-2 2H4a2 2 0 0 1-2-2V6a2 2 0 0 1 2-2h4"/>
    <path d="M12.5 15.8 22 6.2 17.8 2l-9.5 9.5L8 16l4.5-.2z"/>
    </g>
  </symbol>

  <!-- Lock/Password Icon -->
  <symbol id="lock" viewBox="0 0 20 20" fill="currentColor">
    <path fill-rule="evenodd" d="M5 9V7a5 5 0 0110 0v2a2 2 0 012 2v5a2 2 0 01-2 2H5a2 2 0 01-2-2v-5a2 2 0 012-2zm8-2v2H7V7a3 3 0 016 0z" clip-rule="evenodd" />
  </symbol>

   <symbol fill="none" stroke="currentColor" viewBox="0 0 24 24" id="minusIcon">
      <path stroke-linecap="round" stroke-linejoin="round" stroke-width="3" d="M20 12H4" />
   </symbol>

  <symbol fill="none" stroke="currentColor" viewBox="0 0 24 24" id="transferIcon">
    <path stroke-linecap="round" stroke-linejoin="round" stroke-width="2" d="M8 7h12m0 0l-4-4m4 4l-4 4m0 6H4m0 0l4 4m-4-4l4-4" />
  </symbol>

  <symbol fill="none" stroke="currentColor" viewBox="0 0 24 24" id="plusIcon">
    <path stroke-linecap="round" stroke-linejoin="round" stroke-width="2" d="M12 6v6m0 0v6m0-6h6m-6 0H6" />
  </symbol>

  <!-- Calendar Icon -->
   <symbol fill="none" stroke="currentColor" viewBox="0 0 24 24" id="calendarIcon" >
    <path d="M3 9h18M7 3v2m10-2v2M6 13h2m-2 4h2m3-4h2m-2 4h2m3-4h2m-2 4h2M6.2 21h11.6c1.12 0 1.68 0 2.108-.218a2 2 0 0 0 .874-.874C21 19.48 21 18.92 21 17.8V8.2c0-1.12 0-1.68-.218-2.108a2 2 0 0 0-.874-.874C19.48 5 18.92 5 17.8 5H6.2c-1.12 0-1.68 0-2.108.218a2 2 0 0 0-.874.874C3 6.52 3 7.08 3 8.2v9.6c0 1.12 0 1.68.218 2.108a2 2 0 0 0 .874.874C4.52 21 5.08 21 6.2 21Z" stroke-width="2" stroke-linecap="round" stroke-linejoin="round"/>
  </symbol>

  <symbol viewBox="-3 0 262 262" preserveAspectRatio="xMidYMid" id="svg-google">
    <path d="M255.878 133.451c0-10.734-.871-18.567-2.756-26.69H130.55v48.448h71.947c-1.45 12.04-9.283 30.172-26.69 42.356l-.244 1.622 38.755 30.023 2.685.268c24.659-22.774 38.875-56.282 38.875-96.027" fill="#4285F4"/>
    <path d="M130.55 261.1c35.248 0 64.839-11.605 86.453-31.622l-41.196-31.913c-11.024 7.688-25.82 13.055-45.257 13.055-34.523 0-63.824-22.773-74.269-54.25l-1.531.13-40.298 31.187-.527 1.465C35.393 231.798 79.49 261.1 130.55 261.1" fill="#34A853"/>
    <path d="M56.281 156.37c-2.756-8.123-4.351-16.827-4.351-25.82 0-8.994 1.595-17.697 4.206-25.82l-.073-1.73L15.26 71.312l-1.335.635C5.077 89.644 0 109.517 0 130.55s5.077 40.905 13.925 58.602l42.356-32.782" fill="#FBBC05"/>
    <path d="M130.55 50.479c24.514 0 41.05 10.589 50.479 19.438l36.844-35.974C195.245 12.91 165.798 0 130.55 0 79.49 0 35.393 29.301 13.925 71.947l42.211 32.783c10.59-31.477 39.891-54.251 74.414-54.251" fill="#EB4335"/>
  </symbol>

  <symbol viewBox="0 0 98 96" id="svg-github">
    <path fill-rule="evenodd" clip-rule="evenodd" d="M48.854 0C21.839 0 0 22 0 49.217c0 21.756 13.993 40.172 33.405 46.69 2.427.49 3.316-1.059 3.316-2.362 0-1.141-.08-5.052-.08-9.127-13.59 2.934-16.42-5.867-16.42-5.867-2.184-5.704-5.42-7.17-5.42-7.17-4.448-3.015.324-3.015.324-3.015 4.934.326 7.523 5.052 7.523 5.052 4.367 7.496 11.404 5.378 14.235 4.074.404-3.178 1.699-5.378 3.074-6.6-10.839-1.141-22.243-5.378-22.243-24.283 0-5.378 1.94-9.778 5.014-13.2-.485-1.222-2.184-6.275.486-13.038 0 0 4.125-1.304 13.426 5.052a46.97 46.97 0 0 1 12.214-1.63c4.125 0 8.33.571 12.213 1.63 9.302-6.356 13.427-5.052 13.427-5.052 2.67 6.763.97 11.816.485 13.038 3.155 3.422 5.015 7.822 5.015 13.2 0 18.905-11.404 23.06-22.324 24.283 1.78 1.548 3.316 4.481 3.316 9.126 0 6.6-.08 11.897-.08 13.526 0 1.304.89 2.853 3.316 2.364 19.412-6.52 33.405-24.935 33.405-46.691C97.707 22 75.788 0 48.854 0z" fill="#24292f"/>
  </symbol>

  <symbol fill="currentColor" viewBox="0 0 96 96" id="graph">
    <path d="M48 0a48 48 0 1 0 48 48A48.047 48.047 0 0 0 48 0Zm29.28 68.796L62.485 54h20.91a35.675 35.675 0 0 1-6.113 14.796ZM83.395 42H54V12.606A35.933 35.933 0 0 1 83.394 42ZM12 48a35.977 35.977 0 0 1 30-35.394V48a5.98 5.98 0 0 0 1.765 4.25l25.031 25.03A35.889 35.889 0 0 1 12 48Z"/>
  </symbol>

  <symbol id="exchange-rate" viewBox="0 0 512 512" xml:space="preserve" fill="currentColor">
    <g id="aSVGRepo_iconCarrier">
    <path class="ast0" d="M327.5 53.719c4.531-.594 9.188-.891 13.813-.891 1.25 0 2.516.016 3.75.078h.188c2.703 0 4.938-2.156 5.031-4.875.094-2.781-2.078-5.125-4.859-5.219h-.579l-.063-.016H344.561c-.75-.016-1.5-.047-2.25-.047H339.623l-.047.016h-.548l-.028.016H338.202l-.047.016h-.361l-.016.016H337.186l-.047.016h-.232l-.016.016h-.486l-.031.016h-.437l-.031.016h-.377l-.063.016h-.126l-.109.016h-.294l-.047.016H334.749l-.031.016h-.314l-.109.016h-.079l-.031.016h-.248l-.125.016h-.063l-.155.011h-.126l-.125.016h-.063l-.219.016c-2.313.156-4.594.391-6.844.672-2.75.344-4.719 2.875-4.375 5.641.344 2.547 2.5 4.406 5 4.406l.658-.032zM292.266 53.844c-.734 0-1.469.156-2.172.5a110.444 110.444 0 0 0-5.063 2.594l-.313.156-.063.031-.094.047v.016l-.047.016h-.014l-.094.063-.047.031h-.016l-.031.016-.016.016-.047.031-.047.016h-.016l-.031.031h-.016l-.047.031-.047.031h-.016l-.029.014-.016.016-.047.016v.016l-.031.016-.031.016h-.031l-.016.016-.016.016-.047.031h-.016l-.031.031h-.016l-.031.016-.016.016-.047.016-.016.016-.031.016-.016.016h-.031l-.016.016-.063.047-.031.016h-.016l-.031.016h-.016l-.094.063h-.016l-.031.031h-.016l-.09.057-.047.031h-.016l-.141.078a104.953 104.953 0 0 0-6 3.641c-2.328 1.516-2.984 4.625-1.484 6.969a5.071 5.071 0 0 0 4.25 2.297 5.02 5.02 0 0 0 2.734-.813c3.859-2.5 7.922-4.766 12.063-6.766 2.516-1.203 3.578-4.219 2.375-6.719a5.043 5.043 0 0 0-4.562-2.874zM230.734 130.219a5.048 5.048 0 0 0-4.906 3.891 119.958 119.958 0 0 0-2.516 14.922c-.281 2.766 1.734 5.25 4.5 5.531l.531.016c2.547 0 4.75-1.922 5-4.516.469-4.594 1.25-9.172 2.313-13.641.625-2.719-1.047-5.422-3.75-6.063l-1.172-.14zM248.938 86.938a237.058 237.058 0 0 0-2.422 3.109l-.078.109-.031.031-.094.141-.125.141-.094.156-.109.125v.016l-.203.281a97.144 97.144 0 0 0-3.844 5.531l-.094.141-.016.016-.016.031-.063.063v.047h-.016l-.016.031v.016l-.063.063-.016.031v.016l-.016.031h-.016l-.047.063v.016l-.016.016-.016.031-.016.016-.016.031v.016l-.031.047-.016.016-.016.016-.016.016-.016.031v.031l-.031.031-.016.016-.016.047h-.016l-.016.031v.016l-.031.047h-.016l-.016.047v.016l-.031.031v.016l-.063.094c-.328.5-.656 1-.953 1.516-1.453 2.359-.719 5.469 1.641 6.922a5.04 5.04 0 0 0 2.656.75 5.016 5.016 0 0 0 4.297-2.406 110.982 110.982 0 0 1 7.984-11.297c1.75-2.156 1.406-5.344-.766-7.094a4.99 4.99 0 0 0-3.156-1.109 5.036 5.036 0 0 0-3.913 1.854zM383.969 266.797a5.077 5.077 0 0 0 4.594 2.938 4.97 4.97 0 0 0 2.094-.453 114.485 114.485 0 0 0 8.188-4.141l.063-.031.094-.063.047-.016h.016l.094-.063.047-.031h.016l.031-.031.063-.031.031-.016.031-.016.031-.016.016-.016.047-.016v-.016l.031-.016.031-.016.016-.016.016-.016.063-.016v-.016l.031-.016h.031l.016-.016.016-.016.031-.016.047-.031h.016l.031-.016.016-.016.016-.016h.031l.063-.047.031-.016.047-.016.109-.078.047-.016a181.57 181.57 0 0 0 3.781-2.266 5.057 5.057 0 0 0 1.609-6.953c-.969-1.516-2.609-2.375-4.281-2.375-.922 0-1.844.25-2.672.781-3.906 2.422-8 4.625-12.172 6.547-2.535 1.165-3.66 4.165-2.504 6.696zM424.641 230.906c-1.781 2.141-1.5 5.328.641 7.109a4.973 4.973 0 0 0 3.234 1.172 4.963 4.963 0 0 0 3.859-1.813 112.07 112.07 0 0 0 7.344-9.766h.016l.031-.047.063-.094v-.016l.031-.031h.016l.016-.047.031-.063h.016l.016-.031.016-.031.016-.016.016-.016.031-.047v-.016l.031-.031v-.016l.031-.031v-.016l.031-.031v-.016l.031-.031v-.016l.031-.031v-.031l.031-.031.016-.016.016-.016.016-.031.016-.016.063-.109.016-.031h.016l.063-.109v-.016l.031-.016v-.012l.094-.141v-.016l.766-1.156a5.068 5.068 0 0 0-1.547-6.969 5.02 5.02 0 0 0-2.703-.781 5.056 5.056 0 0 0-4.266 2.313 106.399 106.399 0 0 1-8.176 11.156zM453.781 123.547l-.016-.031c-.703-2.109-2.672-3.422-4.781-3.422-.531 0-1.078.063-1.609.25a5.044 5.044 0 0 0-3.172 6.391 107.236 107.236 0 0 1 3.563 13.359 5.04 5.04 0 0 0 4.938 4.063l.984-.094a5.056 5.056 0 0 0 3.969-5.938l-.125-.609v-.047h-.016l-.016-.125v-.016l-.016-.031v-.016l-.016-.125-.016-.016v-.016l-.016-.031v-.047l-.016-.078-.016-.031v-.078l-.016-.016v-.047l-.016-.031v-.047l-.016-.031-.016-.031v-.093l-.016-.031v-.032l-.016-.016v-.047l-.016-.047v-.016l-.016-.047v-.047l-.016-.031-.016-.031v-.079l-.016-.047v-.016l-.016-.047-.016-.063-.016-.047v-.063l-.031-.109v-.063l-.016-.016-.031-.156-.016-.016v-.047l-.031-.125v-.047l-.047-.172v-.016l-.047-.219a110.46 110.46 0 0 0-2.031-7.656l-.063-.234-.094-.328-.016-.016-.063-.203-.047-.172v-.016l-.031-.047-.047-.172-.047-.156v-.016l-.016-.047h-.006l-.031-.109v-.016l-.016-.047v-.016l-.031-.094-.016-.063-.016-.047-.016-.016v-.047l-.031-.047v-.063l-.016-.016-.016-.031v-.016l-.016-.047v-.016l-.016-.031v-.031l-.016-.031-.016-.016v-.047l-.031-.047v-.063l-.016-.016-.016-.031v-.016l-.016-.047-.016-.016v-.063l-.016-.031-.016-.016v-.047l-.016-.016-.016-.031v-.02l-.016-.031v-.016l-.016-.016v-.047l-.016-.031-.016-.016v-.031l-.016-.031v-.016l-.008-.031v-.031l-.016-.047-.016-.016v-.031l-.016-.016-.016-.031v-.016l-.014-.046-.016-.031v-.047l-.016-.016v-.031l-.047-.109v-.016l-.016-.031-.016-.031v-.031l-.031-.063v-.047zM339.234 279.984c.531.016 1.063.016 1.594.016h2.235l.031-.016h.532l.047-.016H344.504l.406-.031h.11c3.141-.094 6.266-.313 9.344-.641 2.766-.313 4.766-2.797 4.453-5.563a5.038 5.038 0 0 0-5-4.5l-.547.031c-3.953.438-7.969.656-11.953.656-.625 0-1.266-.016-1.891-.016h-.078c-2.75 0-5 2.203-5.047 4.938a5.046 5.046 0 0 0 4.933 5.142zM454.063 170.125a5.03 5.03 0 0 0-5 4.438 111.406 111.406 0 0 1-2.531 13.594 5.03 5.03 0 0 0 3.641 6.125l1.234.156c2.25 0 4.313-1.516 4.891-3.781.25-1.031.5-2.047.734-3.063v-.063l.031-.125.016-.047v-.016l.016-.031v-.016l.016-.063v-.016l.016-.031v-.078l.016-.031.016-.031v-.078l.016-.031v-.031l.016-.031.016-.063v-.016l.016-.047v-.063l.031-.109v-.063h.016l.016-.047.016-.125.016-.047v-.016l.031-.156a119.242 119.242 0 0 0 1.719-10.359c.344-2.766-1.625-5.266-4.391-5.609l-.614-.03zM385.531 51.266l-.094-.047h-.016l-.047-.016-.172-.063-.172-.078a76.207 76.207 0 0 0-2.656-1 4.824 4.824 0 0 0-1.75-.328 5.039 5.039 0 0 0-4.719 3.297 5.046 5.046 0 0 0 2.984 6.484 109.76 109.76 0 0 1 12.641 5.609 4.9 4.9 0 0 0 2.313.563c1.828 0 3.594-.969 4.484-2.703 1.297-2.453.328-5.516-2.141-6.797a122.264 122.264 0 0 0-9.391-4.406l-.172-.063-.047-.031-.109-.031-.063-.031-.094-.047-.063-.016-.156-.063h-.016l-.156-.078h-.016l-.031-.016-.125-.047-.047-.016h-.016l-.094-.047v-.016l-.059-.013zM426.375 78.703a5 5 0 0 0-3.609-1.516 5.033 5.033 0 0 0-3.516 1.422c-2 1.938-2.031 5.141-.094 7.125a111.01 111.01 0 0 1 9 10.516 5.037 5.037 0 0 0 7.062 1c2.219-1.656 2.656-4.813 1-7.063a118.932 118.932 0 0 0-5.313-6.563l-.094-.094-.031-.031v-.016l-.063-.078-.016-.016-.031-.031h-.016l-.031-.047-.031-.047v-.014l-.031-.031h-.016l-.031-.031h-.014l-.031-.047v-.016l-.031-.031v-.016l-.031-.031h-.016l-.032-.047h-.016l-.031-.031v-.016l-.031-.031v-.016l-.031-.031-.031-.016-.016-.016-.016-.031-.016-.016-.016-.016-.031-.047-.016-.016-.016-.031-.016-.016-.016-.016-.031-.016-.029-.029-.016-.016-.016-.031-.016-.016-.016-.016-.063-.078-.016-.016-.016-.031h-.031l-.063-.094v-.016l-.031-.016h-.016l-.078-.094v-.016l-.031-.031-.094-.094-.031-.031V82l-.094-.078v-.016l-.016-.031h-.016l-.109-.125-.109-.125v-.016l-.25-.25v-.016a177.907 177.907 0 0 0-2.497-2.64zM63.375 123.641c13.219-19.547 29.75-36.625 48.688-50.609l11.75 24.953 67.047-70.219L88.641 23.25l12.484 26.516C78.141 65.969 58.25 86.219 42.5 109.531 17.563 146.406 3 190.938 3 238.781h25.219c0-42.703 12.969-82.25 35.156-115.14zM483.781 285.828c-.016 41.422-12.203 79.875-33.188 112.172-13.578 20.844-30.875 39.031-50.875 53.75l-9.438-20.031-67.031 70.219 102.219 4.516-14.859-31.563c24.156-16.984 44.984-38.359 61.109-63.141C495.281 375.531 509 332.219 509 285.828h-25.219z"/>
    <path class="ast0" d="M180 164.078c8.563.078 17 .734 25.266 1.922-.047-1.531-.109-3.063-.109-4.625 0-75.078 61.078-136.156 136.156-136.156s136.156 61.078 136.156 136.156c0 69.813-52.813 127.469-120.563 135.234a187.8 187.8 0 0 1 5.672 24.703c79.063-10.422 140.109-78.031 140.109-159.938C502.688 72.25 430.438 0 341.313 0S179.938 72.25 179.938 161.375c0 .906.062 1.797.062 2.703zM225.094 371.813c0-11.984-6.781-20.188-21.344-22.719 4.781-1.844 10.109-7.219 11.703-9.125 1.578-1.906 2.766-3.969 3.516-6.156a20.59 20.59 0 0 0 1.156-6.859c0-4.188-.766-7.953-2.281-11.297-1.516-3.328-4-6.063-7.188-8.531-5.672-4.406-13.922-6.5-20.625-7.063v-14.344h-12.375v14.125l-11.219-.031v-14.094h-12.375v14.063H131.515v11.266c0 2.438-.172 3.906 2.359 4.406l.938.172c.422.063 5.375.219 6.469.375 1.719.234 2.938 1.141 2.938 3.438V380.5c0 1.906-.938 3.781-2.938 3.781-1.094 0-6.047.313-6.469.375l-.938.156c-2.531.516-2.359 1.984-2.359 4.422v12.563H154.062v13.734h12.375v-13.734h11.219v13.734h12.375v-13.844c4.594-.25 9.5-.953 13.422-2.156 4.953-1.5 7.859-3.594 11.234-6.234 3.406-2.656 5.969-5.828 7.75-9.484 1.782-3.672 2.657-7.672 2.657-12zm-57.969-53.954h10.031c5.297 0 9.188.875 11.688 2.609 2.484 1.734 3.719 4.641 3.719 8.75 0 3.938-1.375 6.813-4.125 8.625-2.781 1.797-6.813 2.719-12.156 2.719h-9.156v-22.703zm28.063 58.297a9.464 9.464 0 0 1-2.563 3.781c-1.188 1.094-2.766 1.969-4.734 2.625-1.953.641-4.406.969-7.328.969h-13v-23H180.5c2.766 0 5.125.234 7.063.75 1.953.5 3.563 1.25 4.797 2.188 1.25.969 2.156 2.125 2.75 3.469.578 1.375.875 2.891.875 4.594a13.412 13.412 0 0 1-.797 4.624z"/>
    <path class="ast0" d="M178.313 189.25c-89.125 0-161.375 72.25-161.375 161.375S89.188 512 178.313 512s161.375-72.25 161.375-161.375-72.25-161.375-161.375-161.375zm0 297.531c-75.094 0-136.172-61.078-136.172-136.156s61.078-136.156 136.172-136.156c75.063 0 136.156 61.078 136.156 136.156s-61.094 136.156-136.156 136.156z"/>
    <path class="ast0" d="m163.844 243 .641-.047c4.547-.578 9.203-.859 13.828-.859 1.25 0 2.5.016 3.75.063h.188a5.047 5.047 0 0 0 5.031-4.875c.094-2.781-2.094-5.125-4.875-5.203l-.5-.016h-.22l-.078-.016h-.047l-2.25-.047h-2.39l-.047.016H176.251l-.031.016H175.311l-.047.016h-.314l-.047.016H174.296l-.031.016H174l-.047.016h-.487v.016h-.408l-.058.013H172.593l-.063.016h-.126l-.047.016h-.373l-.047.016h-.063l-.109.016h-.298l-.063.016h-.125l-.047.016h-.248l-.047.016h-.125l-.063.016h-.235l-.047.016h-.125l-.063.016h-.234c-2.297.156-4.578.375-6.828.672a5.057 5.057 0 0 0-4.375 5.641 5.054 5.054 0 0 0 5.002 4.402zM133.813 245.969c-.859-1.813-2.656-2.859-4.547-2.859-.734 0-1.484.156-2.172.484a110.444 110.444 0 0 0-5.063 2.594l-.313.156-.063.031-.094.063-.063.016v.016l-.094.047-.016.016-.047.016v.016l-.047.016-.047.016-.016.016-.031.016-.016.016-.031.016h-.016l-.047.031h-.016l-.031.031h-.016l-.027.027h-.016l-.047.016-.016.016-.031.016-.016.016-.031.016-.031.016h-.016l-.047.031v.016l-.031.016h-.031l-.031.031-.063.016-.016.016-.016.016-.03.012h-.016l-.016.031-.063.031-.047.016h-.016l-.031.016v.016l-.109.047-.047.031-.109.063-.047.031-.156.078a135.358 135.358 0 0 0-5.984 3.641c-2.328 1.516-2.984 4.641-1.484 6.969a5.071 5.071 0 0 0 4.25 2.297c.938 0 1.875-.266 2.719-.813 3.875-2.5 7.938-4.766 12.078-6.766 2.516-1.204 3.578-4.219 2.36-6.719zM142.5 453.125a107.176 107.176 0 0 1-12.734-5.391 5.126 5.126 0 0 0-2.266-.531 5.015 5.015 0 0 0-4.5 2.781 5.028 5.028 0 0 0 2.25 6.766 92.03 92.03 0 0 0 4.688 2.219l.156.063v.016l.156.078.063.016.047.031h.016l.031.016h.016l.047.016v.016l.047.016h.016l.031.016.031.016.031.016.063.031.047.016h.016l.031.031h.016l.047.016.047.031h.016l.031.016.031.016H131l.016.016.047.016.016.016.031.016h.016l.031.016h.016l.031.016.047.016.016.016h.031l.016.016.031.016h.016l.047.031h.031l.016.016.031.016h.016l.031.016.063.031.031.016h.016l.031.016h.016l.094.047.031.016.031.016.109.047.016.016H132l.016.016h.047l.063.031v.016h.031l.031.016.031.016.125.047v.016h.031l.016.016.109.031v.016h.047l.016.016.094.047h.031l.031.016v.016l.125.047h.031l.016.016.156.063.172.063v.016l.031.016h.016l.109.031v.016l.047.016h.016l.109.047h.016l.031.016.031.031h.016l.109.047.047.016h.016l.125.047.031.016.125.063h.031l.016.016.125.047h.047v.016l.109.047h.016l.031.016.047.016h.016l.094.063h.062v.016l.109.031.016.016h.031l.016.016.031.016h.016l.063.031h.016l.031.016.016.016h.047l.047.016.031.016h.031v.016l.031.016h.031l.047.031h.016l.031.016.031.016h.031l.016.016.016.016.047.016h.016l.031.016h.031l.031.016h.016l.047.016.016.016.031.016h.016l.031.016.031.016.031.016h.031l.031.016h.016l.031.031h.016l.047.016H136l.031.016.031.016h.031v.016l.063.016.063.016.047.031h.016l.031.016.063.016.063.031.047.016.109.047.063.016c.828.313 1.672.609 2.516.906a4.758 4.758 0 0 0 1.656.297c2.078 0 4.047-1.313 4.766-3.391.904-2.657-.471-5.532-3.096-6.454zM92.594 417.234a5.022 5.022 0 0 0-3.969-1.938 4.952 4.952 0 0 0-3.094 1.063 5.058 5.058 0 0 0-.906 7.063 210.983 210.983 0 0 0 2.828 3.484l.078.094.031.031v.016l.078.094h.016l.016.016.016.031.031.016v.016l.031.047.031.016v.031l.031.016v.016l.031.031.031.016v.031l.031.016.016.031.016.016.031.031.032.045h.016l.016.031.031.016.031.047.031.031.031.047v.016l.078.078.016.016.031.031.063.094.047.047a122.196 122.196 0 0 0 6.281 6.734 4.994 4.994 0 0 0 3.547 1.469 5.09 5.09 0 0 0 3.594-1.484c1.953-1.969 1.938-5.172-.031-7.141a109.483 109.483 0 0 1-9.188-10.361zM65.344 343.844a5.042 5.042 0 0 0 5-4.531c.469-4.594 1.25-9.172 2.297-13.641.641-2.703-1.047-5.422-3.75-6.063l-1.172-.125a5.034 5.034 0 0 0-4.891 3.875 119.958 119.958 0 0 0-2.516 14.922c-.281 2.75 1.719 5.25 4.5 5.531l.532.032zM93.781 282.547c1.75-2.172 1.406-5.359-.766-7.094a4.959 4.959 0 0 0-3.172-1.125 4.979 4.979 0 0 0-3.906 1.875 91.716 91.716 0 0 0-2.422 3.094l-.078.109-.031.031-.109.141v.016l-.109.125-.094.141v.016l-.109.141-.219.281a105.824 105.824 0 0 0-3.828 5.531h-.016l-.094.156-.016.031-.063.078-.016.031-.031.047-.047.063-.016.047h-.016l-.016.031-.016.016-.031.047v.016l-.016.016-.016.031-.016.031-.016.016-.016.031-.016.031-.016.016-.016.031-.016.016-.016.031-.016.016-.016.047-.016.016-.016.016-.016.016-.016.031-.016.016-.031.047v.016l-.031.031v.016l-.016.031h-.016l-.063.109v.016c-.328.484-.641.984-.938 1.484a5.048 5.048 0 0 0 1.641 6.953c.828.5 1.75.75 2.641.75a5.013 5.013 0 0 0 4.297-2.406 106.612 106.612 0 0 1 8.009-11.3zM72.234 373.75a5.051 5.051 0 0 0-4.922-3.969l-1.078.109c-2.719.594-4.453 3.266-3.859 5.984a117.768 117.768 0 0 0 4.156 14.563c.719 2.063 2.672 3.344 4.734 3.344.563 0 1.141-.109 1.703-.297 2.625-.938 3.984-3.813 3.063-6.453a104.821 104.821 0 0 1-3.797-13.281zM238.297 442.031c-.906 0-1.828.266-2.672.781-3.906 2.422-8 4.625-12.172 6.547-2.531 1.156-3.641 4.156-2.484 6.688.844 1.844 2.688 2.938 4.594 2.938.703 0 1.406-.141 2.094-.453a121.408 121.408 0 0 0 8.188-4.141l.047-.031h.016l.094-.063.047-.031h.016l.094-.047.031-.031h.016l.047-.031.047-.031h.016l.031-.016.016-.016.047-.016.047-.031.016-.016.031-.016.031-.016h.016l.016-.016.047-.031.016-.016h.031l.031-.016v-.016h.031l.031-.031.031-.016.031-.016.031-.016v-.016h.031l.016-.016.078-.047.031-.016.031-.016h.016l.109-.063.031-.031c1.281-.734 2.547-1.5 3.797-2.266a5.039 5.039 0 0 0 1.609-6.938 5.107 5.107 0 0 0-4.299-2.385zM276.781 407.469a5.074 5.074 0 0 0-2.719-.781 5.028 5.028 0 0 0-4.25 2.328 109.211 109.211 0 0 1-8.172 11.156 5.036 5.036 0 0 0 .641 7.109 5.033 5.033 0 0 0 3.219 1.156 4.996 4.996 0 0 0 3.875-1.813 112.07 112.07 0 0 0 7.344-9.766l.031-.031.016-.016.047-.094h.016l.016-.047.016-.016.031-.031.031-.047.016-.016v-.031l.031-.016.016-.047.031-.031.016-.031.031-.031.016-.047.016-.016.031-.031v-.016l.031-.031v-.016l.016-.031.016-.016.031-.031v-.031l.031-.016v-.031l.016-.016.078-.094v-.016l.016-.016.016-.016.063-.109.016-.031.016-.016.094-.141.75-1.172a5.05 5.05 0 0 0-1.536-6.964zM289.688 333.406l1-.094a5.06 5.06 0 0 0 3.969-5.922l-.125-.625v-.016l-.016-.016v-.016l-.016-.125v-.016l-.016-.031v-.016l-.031-.125-.016-.031v-.078l-.031-.078v-.078l-.016-.016v-.031l-.016-.031V326l-.016-.031v-.031l-.016-.031v-.062l-.016-.031-.016-.016v-.109l-.031-.047v-.078l-.016-.031v-.016l-.016-.063v-.063l-.031-.047v-.063l-.016-.063-.016-.047v-.016l-.016-.047-.012-.108v-.016l-.016-.047h-.016l-.031-.188v-.047l-.031-.109v-.016l-.016-.047-.046-.171-.031-.234h-.016a112.092 112.092 0 0 0-2.016-7.656l-.063-.234-.109-.328-.078-.219-.047-.172-.016-.063-.047-.172-.047-.156-.031-.063-.031-.109v-.016l-.016-.031-.016-.016-.031-.109v-.063l-.031-.047v-.016l-.016-.047-.016-.047v-.016l-.016-.047-.016-.063-.031-.047v-.047l-.016-.016-.016-.047v-.016l-.016-.047-.016-.047v-.016l-.016-.031-.016-.031v-.031l-.027-.059v-.047l-.016-.016-.016-.031v-.031l-.016-.031-.016-.031v-.062l-.016-.016-.016-.031v-.016l-.016-.047-.016-.031v-.047l-.016-.031-.012-.016v-.047l-.031-.063v-.047l-.016-.016-.016-.031v-.016l-.016-.047-.016-.031v-.047l-.031-.016v-.031l-.031-.109V313l-.016-.016-.016-.016v-.062l-.031-.063-.016-.047-.016-.016a4.997 4.997 0 0 0-4.766-3.438c-.547 0-1.078.078-1.609.25-2.641.891-4.063 3.766-3.188 6.406a106.322 106.322 0 0 1 3.563 13.344 5.056 5.056 0 0 0 4.94 4.064zM190.813 458.484l-.563.031c-3.938.438-7.953.656-11.938.656-.641 0-1.266 0-1.891-.016h-.094a5.057 5.057 0 0 0-5.047 4.953c-.031 2.781 2.172 5.078 4.953 5.125.531.016 1.047.016 1.578.016H180.219l.156-.016H180.845l.031-.016h.627l.406-.016h.063l.047-.016c3.141-.078 6.266-.313 9.344-.641a5.043 5.043 0 0 0 4.453-5.578 5.055 5.055 0 0 0-5.003-4.482zM291.656 359.406l-.594-.031a5.047 5.047 0 0 0-5.016 4.438 105.788 105.788 0 0 1-2.531 13.594 5.041 5.041 0 0 0 3.641 6.125l1.25.156a5.035 5.035 0 0 0 4.875-3.781c.266-1.031.5-2.031.75-3.063v-.063l.031-.125v-.031l.016-.031v-.031l.016-.016v-.063l.016-.016v-.031l.016-.016v-.078l.016-.047.016-.016v-.093l.016-.031.016-.031v-.063l.016-.063h.016v-.063l.031-.109v-.063l.016-.047.031-.125.016-.047.031-.172a119.858 119.858 0 0 0 1.719-10.344 5.042 5.042 0 0 0-4.41-5.623zM215.875 248.766a109.898 109.898 0 0 1 12.641 5.609c.75.391 1.547.578 2.328.578a5.072 5.072 0 0 0 4.484-2.703c1.297-2.469.328-5.516-2.141-6.813a122.77 122.77 0 0 0-9.406-4.406l-.156-.063-.063-.016-.094-.047-.063-.031-.109-.047-.047-.016h-.016l-.156-.063-.156-.063-.016-.016-.047-.016-.109-.047-.063-.016-.094-.047-.063-.016-.109-.063h-.016l-.031-.016h-.016l-.156-.063-.172-.063v-.016a76.207 76.207 0 0 0-2.656-1 4.948 4.948 0 0 0-1.75-.328 5.039 5.039 0 0 0-4.719 3.297c-.966 2.631.362 5.538 2.971 6.491zM269.188 287.516a5.062 5.062 0 0 0 3.016-1 5.04 5.04 0 0 0 1-7.063 113.293 113.293 0 0 0-5.297-6.578h-.016l-.078-.078v-.016l-.031-.031-.078-.094-.016-.016-.031-.016v-.016l-.031-.047-.031-.047h-.016l-.016-.047h-.031l-.031-.031-.031-.047v-.016l-.031-.031h-.016l-.031-.031-.016-.031-.031-.016v-.016l-.031-.031v-.016l-.031-.031v-.016l-.047-.031-.016-.016-.016-.031-.016-.016-.016-.016-.016-.016-.031-.028-.031-.031v-.016l-.031-.016-.016-.031h-.016l-.031-.047-.016-.016-.016-.031-.016-.016-.016-.016-.078-.063-.016-.031-.016-.016-.016-.016-.063-.094h-.016l-.016-.031h-.016l-.078-.094v-.016l-.031-.016-.016-.031-.078-.063v-.016l-.031-.031v-.016l-.094-.078-.031-.031v-.016l-.106-.121h-.016l-.094-.125-.016-.016-.234-.25a196.085 196.085 0 0 0-2.5-2.656 5.035 5.035 0 0 0-3.625-1.516c-1.25 0-2.531.469-3.5 1.422a5.022 5.022 0 0 0-.094 7.125 113.115 113.115 0 0 1 8.984 10.531c.986 1.313 2.517 2.001 4.049 2.001zM360.156 194.531c-4.469 2.406-10.094 3.594-16.906 3.594-5.391 0-10.813-.734-16.25-2.219-5.469-1.5-12.672-7.75-12.672-7.75a3.194 3.194 0 0 0-3.891.469l-9.609 9.625c-.703.672-1.016 1.641-.891 2.609a3.114 3.114 0 0 0 1.516 2.328s9.828 8.297 17.344 10.359c4.922 1.359 10.141 2.203 15.609 2.672v15.75h19.203V215.89c2.563-.344 5.094-.766 7.516-1.375 5.516-1.422 10.281-3.578 14.25-6.5 3.938-2.906 7.063-6.469 9.344-10.734 2.266-4.25 3.406-9.203 3.406-14.906 0-9.469-2.875-16.703-8.625-21.672-5.734-4.953-14.203-7.938-25.406-8.922L339 150.484c-5.391-.547-9.219-1.828-11.469-3.813-2.281-1.984-3.406-4.813-3.406-8.5 0-4.125 1.594-7.438 4.781-10 3.188-2.547 8.109-3.828 14.781-3.828 5.094 0 9.938.625 14.563 1.813 4.609 1.203 9.953 5.016 9.953 5.016 1.219.625 2.703.359 3.672-.609l9.016-9.156a3.132 3.132 0 0 0 .875-2.703c-.141-.984-.766-1.828-1.641-2.297 0 0-7.063-5.531-13.813-7.359-3.969-1.109-8.219-1.813-12.703-2.266V93.203h-19.203v13.859c-2.172.359-4.313.75-6.344 1.344-4.906 1.406-9.188 3.547-12.875 6.375-3.688 2.813-6.594 6.297-8.719 10.406-2.125 4.125-3.188 8.797-3.188 14.047 0 9.484 2.75 16.578 8.297 21.266 5.516 4.656 13.391 7.5 23.578 8.5l17.25 1.469c5.219.594 8.953 1.922 11.156 4.063 2.203 2.125 3.281 5.031 3.281 8.719.002 5.108-2.217 8.858-6.686 11.28z"/>
    </g>
  </symbol>

  <symbol viewBox="0 0 24 24" fill="none" id="message">
    <path d="M7 9h10M7 13h10m4 7-3.324-1.662a4.161 4.161 0 0 0-.51-.234 2.007 2.007 0 0 0-.36-.085c-.139-.019-.28-.019-.561-.019H6.2c-1.12 0-1.68 0-2.108-.218a2 2 0 0 1-.874-.874C3 16.48 3 15.92 3 14.8V7.2c0-1.12 0-1.68.218-2.108a2 2 0 0 1 .874-.874C4.52 4 5.08 4 6.2 4h11.6c1.12 0 1.68 0 2.108.218a2 2 0 0 1 .874.874C21 5.52 21 6.08 21 7.2V20Z" stroke="currentColor" stroke-width="2" stroke-linecap="round" stroke-linejoin="round"/>
  </symbol>

  <symbol fill="none" viewBox="0 0 24 24" stroke="currentColor" id="account">
    <path stroke-linecap="round" stroke-linejoin="round" stroke-width="1.5" d="M3 10h18M7 15h1m4 0h1m-7 4h12a3 3 0 0 0 3-3V8a3 3 0 0 0-3-3H6a3 3 0 0 0-3 3v8a3 3 0 0 0 3 3z"/>
  </symbol>

  <symbol fill="none" viewBox="0 0 24 24" stroke="currentColor" id="goal">
    <path stroke-linecap="round" stroke-linejoin="round" stroke-width="1.5" d="M12 8c-1.657 0-3 .895-3 2s1.343 2 3 2 3 .895 3 2-1.343 2-3 2m0-8c1.11 0 2.08.402 2.599 1M12 8V7m0 1v8m0 0v1m0-1c-1.11 0-2.08-.402-2.599-1M21 12a9 9 0 1 1-18 0 9 9 0 0 1 18 0z"/>
  </symbol>

  <symbol fill="none" viewBox="0 0 24 24" stroke="currentColor" id="stats">
    <path stroke-linecap="round" stroke-linejoin="round" stroke-width="1.5" d="M13 7h8m0 0v8m0-8-8 8-4-4-6 6"/>
  </symbol>
    
</svg>